<svg width="46" height="45" viewBox="0 0 46 45" fill="none" xmlns="http://www.w3.org/2000/svg">
<rect x="0.474609" width="45" height="45" rx="22.5" fill="black"/>
<path d="M24.9746 12.6429C24.9746 11.7342 24.0809 11 22.9746 11C21.8684 11 20.9746 11.7342 20.9746 12.6429V25.7857C20.9746 26.6944 21.8684 27.4286 22.9746 27.4286C24.0809 27.4286 24.9746 26.6944 24.9746 25.7857V12.6429ZM22.9746 34C23.6377 34 24.2735 33.7836 24.7424 33.3985C25.2112 33.0134 25.4746 32.4911 25.4746 31.9464C25.4746 31.4018 25.2112 30.8795 24.7424 30.4943C24.2735 30.1092 23.6377 29.8929 22.9746 29.8929C22.3116 29.8929 21.6757 30.1092 21.2068 30.4943C20.738 30.8795 20.4746 31.4018 20.4746 31.9464C20.4746 32.4911 20.738 33.0134 21.2068 33.3985C21.6757 33.7836 22.3116 34 22.9746 34Z" fill="white"/>
</svg>
