<svg width="63" height="62" viewBox="0 0 63 62" fill="none" xmlns="http://www.w3.org/2000/svg">
<rect width="62.5463" height="62" rx="31" fill="white"/>
<path d="M31.2731 62C39.5673 62 47.5217 58.7339 53.3866 52.9203C59.2514 47.1067 62.5463 39.2217 62.5463 31C62.5463 22.7783 59.2514 14.8933 53.3866 9.07969C47.5217 3.26606 39.5673 0 31.2731 0C22.979 0 15.0245 3.26606 9.15969 9.07969C3.29484 14.8933 0 22.7783 0 31C0 39.2217 3.29484 47.1067 9.15969 52.9203C15.0245 58.7339 22.979 62 31.2731 62ZM45.0773 25.3086L29.4407 40.8086C28.2924 41.9469 26.4356 41.9469 25.2995 40.8086L17.4812 33.0586C16.3329 31.9203 16.3329 30.0797 17.4812 28.9535C18.6295 27.8273 20.4863 27.8152 21.6224 28.9535L27.364 34.6449L40.9238 21.1914C42.0721 20.0531 43.929 20.0531 45.0651 21.1914C46.2012 22.3297 46.2134 24.1703 45.0651 25.2965L45.0773 25.3086Z" fill="#8A5938"/>
</svg>
