<svg width="90" height="69" viewBox="0 0 90 69" fill="none" xmlns="http://www.w3.org/2000/svg">
<path d="M79.5857 7.78571C80.9454 7.78571 82.0579 8.87857 82.0579 10.2143V15.0714H7.89128V10.2143C7.89128 8.87857 9.00378 7.78571 10.3635 7.78571H79.5857ZM82.0579 29.6429V58.7857C82.0579 60.1214 80.9454 61.2143 79.5857 61.2143H10.3635C9.00378 61.2143 7.89128 60.1214 7.89128 58.7857V29.6429H82.0579ZM10.3635 0.5C4.90916 0.5 0.474609 4.85625 0.474609 10.2143V58.7857C0.474609 64.1437 4.90916 68.5 10.3635 68.5H79.5857C85.0401 68.5 89.4746 64.1437 89.4746 58.7857V10.2143C89.4746 4.85625 85.0401 0.5 79.5857 0.5H10.3635ZM19.0163 46.6429C16.9612 46.6429 15.3079 48.267 15.3079 50.2857C15.3079 52.3045 16.9612 53.9286 19.0163 53.9286H26.4329C28.488 53.9286 30.1413 52.3045 30.1413 50.2857C30.1413 48.267 28.488 46.6429 26.4329 46.6429H19.0163ZM38.7941 46.6429C36.739 46.6429 35.0857 48.267 35.0857 50.2857C35.0857 52.3045 36.739 53.9286 38.7941 53.9286H56.0996C58.1546 53.9286 59.8079 52.3045 59.8079 50.2857C59.8079 48.267 58.1546 46.6429 56.0996 46.6429H38.7941Z" fill="black"/>
</svg>
