<svg width="62" height="55" viewBox="0 0 62 55" fill="none" xmlns="http://www.w3.org/2000/svg">
<path d="M0 2.57812C0 1.14941 1.15174 0 2.58333 0H7.4809C9.84896 0 11.9479 1.375 12.9274 3.4375H57.167C59.9979 3.4375 62.0646 6.12305 61.3219 8.85156L56.9087 25.2119C55.9937 28.585 52.926 30.9375 49.4278 30.9375H18.374L18.9552 33.999C19.192 35.2129 20.2576 36.0938 21.4955 36.0938H52.5278C53.9594 36.0938 55.1111 37.2432 55.1111 38.6719C55.1111 40.1006 53.9594 41.25 52.5278 41.25H21.4955C17.7712 41.25 14.5743 38.6074 13.8854 34.9658L8.33125 5.85449C8.2559 5.44629 7.90069 5.15625 7.4809 5.15625H2.58333C1.15174 5.15625 0 4.00684 0 2.57812ZM13.7778 49.8438C13.7778 49.1666 13.9114 48.4961 14.1711 47.8705C14.4307 47.245 14.8113 46.6765 15.2911 46.1977C15.7708 45.7189 16.3404 45.3391 16.9672 45.08C17.5941 44.8209 18.2659 44.6875 18.9444 44.6875C19.6229 44.6875 20.2948 44.8209 20.9216 45.08C21.5485 45.3391 22.1181 45.7189 22.5978 46.1977C23.0776 46.6765 23.4582 47.245 23.7178 47.8705C23.9775 48.4961 24.1111 49.1666 24.1111 49.8438C24.1111 50.5209 23.9775 51.1914 23.7178 51.817C23.4582 52.4425 23.0776 53.011 22.5978 53.4898C22.1181 53.9686 21.5485 54.3484 20.9216 54.6075C20.2948 54.8666 19.6229 55 18.9444 55C18.2659 55 17.5941 54.8666 16.9672 54.6075C16.3404 54.3484 15.7708 53.9686 15.2911 53.4898C14.8113 53.011 14.4307 52.4425 14.1711 51.817C13.9114 51.1914 13.7778 50.5209 13.7778 49.8438ZM49.9444 44.6875C51.3147 44.6875 52.6289 45.2307 53.5978 46.1977C54.5668 47.1647 55.1111 48.4762 55.1111 49.8438C55.1111 51.2113 54.5668 52.5228 53.5978 53.4898C52.6289 54.4568 51.3147 55 49.9444 55C48.5742 55 47.26 54.4568 46.2911 53.4898C45.3221 52.5228 44.7778 51.2113 44.7778 49.8438C44.7778 48.4762 45.3221 47.1647 46.2911 46.1977C47.26 45.2307 48.5742 44.6875 49.9444 44.6875Z" fill="black"/>
</svg>
