<svg width="65" height="65" viewBox="0 0 65 65" fill="none" xmlns="http://www.w3.org/2000/svg">
<path d="M32.4746 64.5C40.9615 64.5 49.1009 61.1286 55.102 55.1274C61.1032 49.1263 64.4746 40.9869 64.4746 32.5C64.4746 24.0131 61.1032 15.8737 55.102 9.87258C49.1009 3.87142 40.9615 0.5 32.4746 0.5C23.9877 0.5 15.8484 3.87142 9.84719 9.87258C3.84603 15.8737 0.474609 24.0131 0.474609 32.5C0.474609 40.9869 3.84603 49.1263 9.84719 55.1274C15.8484 61.1286 23.9877 64.5 32.4746 64.5ZM22.3496 22.375C23.5246 21.2 25.4246 21.2 26.5871 22.375L32.4621 28.25L38.3371 22.375C39.5121 21.2 41.4121 21.2 42.5746 22.375C43.7371 23.55 43.7496 25.45 42.5746 26.6125L36.6996 32.4875L42.5746 38.3625C43.7496 39.5375 43.7496 41.4375 42.5746 42.6C41.3996 43.7625 39.4996 43.775 38.3371 42.6L32.4621 36.725L26.5871 42.6C25.4121 43.775 23.5121 43.775 22.3496 42.6C21.1871 41.425 21.1746 39.525 22.3496 38.3625L28.2246 32.4875L22.3496 26.6125C21.1746 25.4375 21.1746 23.5375 22.3496 22.375Z" fill="black"/>
</svg>
