<svg width="66" height="65" viewBox="0 0 66 65" fill="none" xmlns="http://www.w3.org/2000/svg">
<path d="M32.9746 65C41.5941 65 49.8606 61.5759 55.9556 55.481C62.0505 49.386 65.4746 41.1195 65.4746 32.5C65.4746 23.8805 62.0505 15.614 55.9556 9.51903C49.8606 3.4241 41.5941 0 32.9746 0C24.3551 0 16.0886 3.4241 9.99364 9.51903C3.89871 15.614 0.474609 23.8805 0.474609 32.5C0.474609 41.1195 3.89871 49.386 9.99364 55.481C16.0886 61.5759 24.3551 65 32.9746 65ZM47.3203 26.5332L31.0703 42.7832C29.877 43.9766 27.9473 43.9766 26.7666 42.7832L18.6416 34.6582C17.4482 33.4648 17.4482 31.5352 18.6416 30.3545C19.835 29.1738 21.7646 29.1611 22.9453 30.3545L28.9121 36.3213L43.0039 22.2168C44.1973 21.0234 46.127 21.0234 47.3076 22.2168C48.4883 23.4102 48.501 25.3398 47.3076 26.5205L47.3203 26.5332Z" fill="black"/>
</svg>
