<svg width="63" height="60" viewBox="0 0 63 60" fill="none" xmlns="http://www.w3.org/2000/svg">
<path d="M29.6533 1.43945C30.3366 -0.202686 32.6634 -0.20269 33.3467 1.43945L40.4209 18.4482C40.7089 19.1406 41.36 19.6139 42.1074 19.6738L60.4697 21.1455C62.2427 21.288 62.9613 23.501 61.6104 24.6582L47.6211 36.6416C47.0515 37.1295 46.8025 37.8955 46.9766 38.625L51.251 56.543C51.6635 58.2733 49.7808 59.641 48.2627 58.7139L32.543 49.1113C31.9029 48.7204 31.0971 48.7204 30.457 49.1113L14.7373 58.7139C13.2192 59.641 11.3365 58.2733 11.749 56.543L16.0234 38.625C16.1975 37.8955 15.9485 37.1295 15.3789 36.6416L1.38965 24.6582C0.0386781 23.501 0.757263 21.288 2.53027 21.1455L20.8926 19.6738C21.64 19.6139 22.2911 19.1406 22.5791 18.4482L29.6533 1.43945Z" fill="#F1C644"/>
<path d="M29.6533 1.43945C30.3366 -0.202686 32.6634 -0.20269 33.3467 1.43945L40.4209 18.4482C40.7089 19.1406 41.36 19.6139 42.1074 19.6738L60.4697 21.1455C62.2427 21.288 62.9613 23.501 61.6104 24.6582L47.6211 36.6416C47.0515 37.1295 46.8025 37.8955 46.9766 38.625L51.251 56.543C51.6635 58.2733 49.7808 59.641 48.2627 58.7139L32.543 49.1113C31.9029 48.7204 31.0971 48.7204 30.457 49.1113L14.7373 58.7139C13.2192 59.641 11.3365 58.2733 11.749 56.543L16.0234 38.625C16.1975 37.8955 15.9485 37.1295 15.3789 36.6416L1.38965 24.6582C0.0386781 23.501 0.757263 21.288 2.53027 21.1455L20.8926 19.6738C21.64 19.6139 22.2911 19.1406 22.5791 18.4482L29.6533 1.43945Z" stroke="#F1C644"/>
</svg>
