<svg width="44" height="37" viewBox="0 0 44 37" fill="none" xmlns="http://www.w3.org/2000/svg">
<path d="M19.4383 35.8629L19.2283 35.6697L4.51426 22.0054C1.93594 19.6119 0.474609 16.2525 0.474609 12.7336V12.4564C0.474609 6.54391 4.67383 1.47126 10.4855 0.362664C13.7945 -0.275617 17.1791 0.48864 19.875 2.38669C20.6309 2.92419 21.3363 3.54567 21.9746 4.25954C22.3273 3.85641 22.7053 3.48688 23.1084 3.14255C23.4191 2.8738 23.7383 2.62184 24.0742 2.38669C26.7701 0.48864 30.1547 -0.275617 33.4637 0.354266C39.2754 1.46286 43.4746 6.54391 43.4746 12.4564V12.7336C43.4746 16.2525 42.0133 19.6119 39.435 22.0054L24.7209 35.6697L24.5109 35.8629C23.8223 36.5011 22.9152 36.8623 21.9746 36.8623C21.034 36.8623 20.127 36.5095 19.4383 35.8629ZM20.5553 8.71911C20.5217 8.69391 20.4965 8.66032 20.4713 8.62673L18.9764 6.94704L18.968 6.93864C17.0279 4.76345 14.0969 3.77243 11.2414 4.31833C7.32773 5.06579 4.50586 8.47555 4.50586 12.4564V12.7336C4.50586 15.1271 5.50527 17.4199 7.26055 19.0492L21.9746 32.7134L36.6887 19.0492C38.4439 17.4199 39.4434 15.1271 39.4434 12.7336V12.4564C39.4434 8.48395 36.6215 5.06579 32.7162 4.31833C29.8607 3.77243 26.9213 4.77184 24.9896 6.93864C24.9896 6.93864 24.9896 6.93864 24.9812 6.94704C24.9729 6.95544 24.9813 6.94704 24.9729 6.95544L23.4779 8.63513C23.4527 8.66872 23.4191 8.69391 23.3939 8.72751C23.016 9.10544 22.5037 9.3154 21.9746 9.3154C21.4455 9.3154 20.9332 9.10544 20.5553 8.72751V8.71911Z" fill="black"/>
</svg>
