<svg width="50" height="44" viewBox="0 0 50 44" fill="none" xmlns="http://www.w3.org/2000/svg">
<path d="M22.1098 42.3298L21.8705 42.1036L5.10332 26.1044C2.16523 23.3019 0.5 19.3685 0.5 15.2482V14.9237C0.5 8.00087 5.28516 2.0614 11.9078 0.763375C15.6785 0.0160253 19.5354 0.910878 22.6074 3.13326C23.4688 3.76261 24.2727 4.49029 25 5.32614C25.402 4.85413 25.8326 4.42146 26.292 4.01828C26.6461 3.70361 27.0098 3.4086 27.3926 3.13326C30.4646 0.910878 34.3215 0.0160254 38.0922 0.753542C44.7148 2.05157 49.5 8.00087 49.5 14.9237V15.2482C49.5 19.3685 47.8348 23.3019 44.8967 26.1044L28.1295 42.1036L27.8902 42.3298C27.1055 43.0772 26.0719 43.5 25 43.5C23.9281 43.5 22.8945 43.087 22.1098 42.3298ZM23.3826 10.5478C23.3443 10.5183 23.3156 10.4789 23.2869 10.4396L21.5834 8.47288L21.5738 8.46305C19.3631 5.91616 16.023 4.7558 12.7691 5.39498C8.30937 6.27017 5.09375 10.2626 5.09375 14.9237V15.2482C5.09375 18.0508 6.23262 20.7353 8.23281 22.643L25 38.6422L41.7672 22.643C43.7674 20.7353 44.9062 18.0508 44.9062 15.2482V14.9237C44.9062 10.2724 41.6906 6.27017 37.2404 5.39498C33.9865 4.7558 30.6369 5.92599 28.4357 8.46305C28.4357 8.46305 28.4357 8.46305 28.4262 8.47288C28.4166 8.48272 28.4262 8.47288 28.4166 8.48272L26.7131 10.4494C26.6844 10.4888 26.6461 10.5183 26.6174 10.5576C26.1867 11.0001 25.6029 11.2459 25 11.2459C24.3971 11.2459 23.8133 11.0001 23.3826 10.5576V10.5478Z" fill="#B45858"/>
<path d="M17.5 4L25 10L26 6.5L35.5 3.5L44.5 6L47.5 12.5L44.5 22L26.5 40.5L23 39C18.8333 35.3333 10.3 27.9 9.5 27.5C8.7 27.1 4.66667 23 3.5 20.5L2.5 15.5L3 9.5L9.5 5L17.5 4Z" fill="#B45858"/>
</svg>
