<svg width="63" height="60" viewBox="0 0 63 60" fill="none" xmlns="http://www.w3.org/2000/svg">
<path d="M29.6534 1.43986C30.3365 -0.202723 32.6635 -0.202729 33.3466 1.43986L40.4207 18.448C40.7088 19.1405 41.36 19.6136 42.1076 19.6736L60.4693 21.1456C62.2426 21.2878 62.9617 23.5008 61.6106 24.6581L47.6209 36.6418C47.0513 37.1297 46.8026 37.8953 46.9766 38.6248L51.2507 56.5428C51.6634 58.2732 49.7809 59.6409 48.2627 58.7136L32.5425 49.1118C31.9025 48.7208 31.0975 48.7208 30.4575 49.1118L14.7373 58.7136C13.2191 59.6409 11.3366 58.2732 11.7493 56.5428L16.0234 38.6248C16.1974 37.8953 15.9487 37.1297 15.3791 36.6418L1.38941 24.6582C0.038337 23.5008 0.757385 21.2878 2.53069 21.1456L20.8924 19.6736C21.64 19.6136 22.2912 19.1405 22.5793 18.448L29.6534 1.43986Z" fill="#D4D4D4"/>
<path d="M29.6534 1.43986C30.3365 -0.202723 32.6635 -0.202729 33.3466 1.43986L40.4207 18.448C40.7088 19.1405 41.36 19.6136 42.1076 19.6736L60.4693 21.1456C62.2426 21.2878 62.9617 23.5008 61.6106 24.6581L47.6209 36.6418C47.0513 37.1297 46.8026 37.8953 46.9766 38.6248L51.2507 56.5428C51.6634 58.2732 49.7809 59.6409 48.2627 58.7136L32.5425 49.1118C31.9025 48.7208 31.0975 48.7208 30.4575 49.1118L14.7373 58.7136C13.2191 59.6409 11.3366 58.2732 11.7493 56.5428L16.0234 38.6248C16.1974 37.8953 15.9487 37.1297 15.3791 36.6418L1.38941 24.6582C0.038337 23.5008 0.757385 21.2878 2.53069 21.1456L20.8924 19.6736C21.64 19.6136 22.2912 19.1405 22.5793 18.448L29.6534 1.43986Z" fill="url(#paint0_linear_337_1876)"/>
<defs>
<linearGradient id="paint0_linear_337_1876" x1="-4" y1="32.5" x2="67" y2="32.5" gradientUnits="userSpaceOnUse">
<stop stop-color="#F1C644"/>
<stop offset="0.8" stop-color="#F1C644"/>
<stop offset="0.8" stop-color="#F1C644" stop-opacity="0"/>
<stop offset="1" stop-color="#F1C644" stop-opacity="0"/>
</linearGradient>
</defs>
</svg>
