<svg width="51" height="57" viewBox="0 0 51 57" fill="none" xmlns="http://www.w3.org/2000/svg">
<path d="M29.5652 0C13.4905 0 0.474609 12.7614 0.474609 28.5C0.474609 44.2386 13.4905 57 29.5652 57C37.4529 57 44.5986 53.921 49.8441 48.9335C50.4949 48.31 50.6641 47.3431 50.2476 46.5542C49.831 45.7654 48.9329 45.3201 48.0348 45.4728C46.7593 45.6891 45.4577 45.8036 44.117 45.8036C31.5046 45.8036 21.2741 35.7777 21.2741 23.4107C21.2741 15.0388 25.9598 7.74844 32.8973 3.90603C33.6913 3.46071 34.0948 2.57009 33.8995 1.70491C33.7043 0.839732 32.9494 0.190848 32.0383 0.114509C31.2183 0.0508931 30.3983 0.012723 29.5652 0.012723V0Z" fill="white"/>
</svg>
