<svg width="60" height="57" viewBox="0 0 60 57" fill="none" xmlns="http://www.w3.org/2000/svg">
<path d="M48.4144 23.1529C48.4144 28.2621 46.6974 32.9817 43.8048 36.8108L58.3942 50.914C59.8347 52.3054 59.8347 54.5651 58.3942 55.9565C56.9537 57.3478 54.6144 57.3478 53.1739 55.9565L38.5845 41.8532C34.6202 44.6583 29.734 46.3057 24.4445 46.3057C11.2035 46.3057 0.474609 35.9426 0.474609 23.1529C0.474609 10.3631 11.2035 0 24.4445 0C37.6856 0 48.4144 10.3631 48.4144 23.1529ZM24.4445 39.1818C26.6238 39.1818 28.7816 38.7672 30.795 37.9616C32.8083 37.1561 34.6377 35.9754 36.1787 34.487C37.7196 32.9986 38.942 31.2316 39.7759 29.2869C40.6099 27.3421 41.0391 25.2578 41.0391 23.1529C41.0391 21.0479 40.6099 18.9636 39.7759 17.0189C38.942 15.0741 37.7196 13.3071 36.1787 11.8187C34.6377 10.3303 32.8083 9.14961 30.795 8.34408C28.7816 7.53856 26.6238 7.12396 24.4445 7.12396C22.2653 7.12396 20.1074 7.53856 18.0941 8.34408C16.0807 9.14961 14.2514 10.3303 12.7104 11.8187C11.1695 13.3071 9.94711 15.0741 9.11315 17.0189C8.2792 18.9636 7.84997 21.0479 7.84997 23.1529C7.84997 25.2578 8.2792 27.3421 9.11315 29.2869C9.94711 31.2316 11.1695 32.9986 12.7104 34.487C14.2514 35.9754 16.0807 37.1561 18.0941 37.9616C20.1074 38.7672 22.2653 39.1818 24.4445 39.1818Z" fill="white"/>
</svg>
