<svg width="58" height="61" viewBox="0 0 58 61" fill="none" xmlns="http://www.w3.org/2000/svg">
<path d="M1.82366 41.1512C1.46116 40.1147 1.76702 38.959 2.54866 38.2203L7.45374 33.5262C7.32912 32.5373 7.26116 31.5246 7.26116 30.5C7.26116 29.4754 7.32912 28.4627 7.45374 27.4738L2.54866 22.7797C1.76702 22.041 1.46116 20.8854 1.82366 19.8488C2.32209 18.4311 2.92249 17.0729 3.6135 15.7623L4.14592 14.7973C4.89358 13.4867 5.73186 12.2477 6.64944 11.0801C7.3178 10.2223 8.42796 9.93633 9.42483 10.2699L15.7346 12.3787C17.2526 11.1516 18.9291 10.127 20.719 9.35255L22.135 2.54962C22.3615 1.46544 23.1545 0.607624 24.1967 0.428913C25.76 0.154888 27.3686 0.0119209 29.0112 0.0119209C30.6537 0.0119209 32.2623 0.154888 33.8256 0.428913C34.8678 0.607624 35.6608 1.46544 35.8873 2.54962L37.3033 9.35255C39.0932 10.127 40.7697 11.1516 42.2877 12.3787L48.5862 10.258C49.583 9.92442 50.6932 10.2223 51.3615 11.0682C52.2791 12.2357 53.1174 13.4748 53.8651 14.7854L54.3975 15.7504C55.0885 17.0609 55.6889 18.4191 56.1873 19.8369C56.5498 20.8734 56.244 22.0291 55.4623 22.7678L50.5572 27.4619C50.6819 28.4627 50.7498 29.4754 50.7498 30.5C50.7498 31.5246 50.6819 32.5373 50.5572 33.5262L55.4623 38.2203C56.244 38.959 56.5498 40.1147 56.1873 41.1512C55.6889 42.5689 55.0885 43.9272 54.3975 45.2377L53.8651 46.2027C53.1174 47.5133 52.2791 48.7523 51.3615 49.9199C50.6932 50.7777 49.583 51.0637 48.5862 50.7301L42.2764 48.6213C40.7584 49.8484 39.0819 50.873 37.292 51.6475L35.876 58.4504C35.6494 59.5346 34.8565 60.3924 33.8143 60.5711C32.251 60.857 30.6424 61 28.9998 61C27.3573 61 25.7487 60.857 24.1854 60.583C23.1432 60.4043 22.3502 59.5465 22.1237 58.4623L20.7076 51.6594C18.9178 50.885 17.2412 49.8604 15.7233 48.6332L9.4135 50.742C8.41663 51.0756 7.30647 50.7777 6.63811 49.9318C5.72053 48.7643 4.88225 47.5252 4.1346 46.2147L3.60217 45.2496C2.91116 43.9391 2.31077 42.5809 1.81233 41.1631L1.82366 41.1512ZM28.9998 20.9688C26.5963 20.9688 24.2912 21.9729 22.5917 23.7604C20.8921 25.5479 19.9373 27.9722 19.9373 30.5C19.9373 33.0278 20.8921 35.4522 22.5917 37.2396C24.2912 39.0271 26.5963 40.0313 28.9998 40.0313C31.4034 40.0313 33.7084 39.0271 35.408 37.2396C37.1075 35.4522 38.0623 33.0278 38.0623 30.5C38.0623 27.9722 37.1075 25.5479 35.408 23.7604C33.7084 21.9729 31.4034 20.9688 28.9998 20.9688Z" fill="black"/>
<ellipse cx="29.6175" cy="30.5" rx="9.87234" ry="10.1667" fill="white"/>
</svg>
