<svg width="53" height="61" viewBox="0 0 53 61" fill="none" xmlns="http://www.w3.org/2000/svg">
<g clip-path="url(#clip0_421_2160)">
<path d="M15.9946 2.10879L15.1429 3.8125H3.78571C1.69174 3.8125 0 5.51621 0 7.625C0 9.73379 1.69174 11.4375 3.78571 11.4375H49.2143C51.3083 11.4375 53 9.73379 53 7.625C53 5.51621 51.3083 3.8125 49.2143 3.8125H37.8571L37.0054 2.10879C36.3665 0.810156 35.0534 0 33.6219 0H19.3781C17.9467 0 16.6335 0.810156 15.9946 2.10879ZM49.2143 15.25H3.78571L6.29375 55.6387C6.48304 58.6529 8.96741 61 11.9605 61H41.0395C44.0326 61 46.517 58.6529 46.7062 55.6387L49.2143 15.25Z" fill="#8A5938"/>
<path d="M18.7949 28.0934L36.5951 45.7393" stroke="white" stroke-width="3" stroke-linecap="round"/>
<path d="M35.3335 27.9583L18.9287 45.75" stroke="white" stroke-width="3" stroke-linecap="round"/>
</g>
<defs>
<clipPath id="clip0_421_2160">
<rect width="53" height="61" fill="white"/>
</clipPath>
</defs>
</svg>
