<svg width="54" height="61" viewBox="0 0 54 61" fill="none" xmlns="http://www.w3.org/2000/svg">
<g clip-path="url(#clip0_98_2120)">
<path d="M16.4693 2.10879L15.6175 3.8125H4.26032C2.16635 3.8125 0.474609 5.51621 0.474609 7.625C0.474609 9.73379 2.16635 11.4375 4.26032 11.4375H49.6889C51.7829 11.4375 53.4746 9.73379 53.4746 7.625C53.4746 5.51621 51.7829 3.8125 49.6889 3.8125H38.3318L37.48 2.10879C36.8411 0.810156 35.528 0 34.0965 0H19.8527C18.4213 0 17.1081 0.810156 16.4693 2.10879ZM49.6889 15.25H4.26032L6.76836 55.6387C6.95765 58.6529 9.44202 61 12.4351 61H41.5141C44.5072 61 46.9916 58.6529 47.1809 55.6387L49.6889 15.25Z" fill="black"/>
<path d="M19.2695 28.0933L37.0697 45.7393" stroke="white" stroke-width="3" stroke-linecap="round"/>
<path d="M35.8076 27.9583L19.4029 45.75" stroke="white" stroke-width="3" stroke-linecap="round"/>
</g>
<defs>
<clipPath id="clip0_98_2120">
<rect width="53" height="61" fill="white" transform="translate(0.474609)"/>
</clipPath>
</defs>
</svg>
