<svg width="53" height="59" viewBox="0 0 53 59" fill="none" xmlns="http://www.w3.org/2000/svg">
<g clip-path="url(#clip0_22_31)">
<path d="M26.5 29.5C30.5161 29.5 34.3678 27.946 37.2076 25.1798C40.0475 22.4137 41.6429 18.6619 41.6429 14.75C41.6429 10.8381 40.0475 7.08634 37.2076 4.32018C34.3678 1.55401 30.5161 0 26.5 0C22.4839 0 18.6322 1.55401 15.7924 4.32018C12.9525 7.08634 11.3571 10.8381 11.3571 14.75C11.3571 18.6619 12.9525 22.4137 15.7924 25.1798C18.6322 27.946 22.4839 29.5 26.5 29.5ZM21.0935 35.0312C9.44063 35.0312 0 44.227 0 55.5775C0 57.4674 1.57344 59 3.51362 59H49.4864C51.4266 59 53 57.4674 53 55.5775C53 44.227 43.5594 35.0312 31.9065 35.0312H21.0935Z" fill="black"/>
</g>
<defs>
<clipPath id="clip0_22_31">
<rect width="53" height="59" fill="white"/>
</clipPath>
</defs>
</svg>
